<svg xmlns="http://www.w3.org/2000/svg" width="40.782" height="40.813" viewBox="0 0 40.782 40.813">
  <defs>
    <style>
      .cls-1 {
        fill: #678fc8;
        fill-rule: evenodd;
      }
    </style>
  </defs>
  <path id="icon_rss.svg" class="cls-1" d="M690.455,206.957a6.057,6.057,0,1,0,6.048,6.061A6.057,6.057,0,0,0,690.455,206.957Zm-5.416-15.38a0.63,0.63,0,0,0-.627.631v7.69a0.63,0.63,0,0,0,.627.629,17.916,17.916,0,0,1,17.875,17.914,0.63,0.63,0,0,0,.628.629h7.7a0.633,0.633,0,0,0,.634-0.629l-0.031-.2A26.875,26.875,0,0,0,685.039,191.577Zm40.115,26.667a40.2,40.2,0,0,0-40.115-40.006,0.63,0.63,0,0,0-.627.632v7.914a0.628,0.628,0,0,0,.627.628A31.031,31.031,0,0,1,716,218.441a0.63,0.63,0,0,0,.625.629h7.93a0.637,0.637,0,0,0,.633-0.629Z" transform="translate(-684.406 -178.25)"/>
</svg>
